# AST/ASF file generated using VICON BodyLanguage
# -----------------------------------------------
:version 1.10
:name VICON
:units
  mass 1.0
  length 0.45
  angle deg
:documentation
   .ast/.asf automatically generated from VICON data using
   VICON BodyBuilder and BodyLanguage model FoxedUp or BRILLIANT.MOD
:root
   order TX TY TZ RX RY RZ
   axis XYZ
   position 0 0 0  
   orientation 0 0 0 
:bonedata
  begin
     id 1 
     name lhipjoint
     direction 0.541323 -0.757556 0.364798 
     length 2.47576 
     axis 0 0 0  XYZ
  end
  begin
     id 2 
     name lfemur
     direction 0.34202 -0.939693 0  
     length 7.46493  
     axis 0 0 20  XYZ
    dof rx ry rz
    limits (-160.0 20.0)
           (-70.0 70.0)
           (-60.0 70.0)
  end
  begin
     id 3 
     name ltibia
     direction 0.34202 -0.939693 0   
     length 7.73805   
     axis 0 0 20   XYZ
    dof rx
    limits (-10.0 170.0)
  end
  begin
     id 4 
     name lfoot
     direction 0.107174 -0.294458 0.949636   
     length 2.25864   
     axis -90 7.62852e-016 20   XYZ
    dof rx rz
    limits (-45.0 90.0)
           (-70.0 20.0)
  end
  begin
     id 5 
     name ltoes
     direction 1.53606e-011 -4.21934e-011 1   
     length 1.12451   
     axis -90 7.62852e-016 20   XYZ
    dof rx
    limits (-90.0 20.0)
  end
  begin
     id 6 
     name rhipjoint
     direction -0.524745 -0.766967 0.36933   
     length 2.44538  
     axis 0 0 0  XYZ 
  end
  begin
     id 7 
     name rfemur
     direction -0.34202 -0.939693 0   
     length 7.61604   
     axis 0 0 -20   XYZ
    dof rx ry rz
    limits (-160.0 20.0)
           (-70.0 70.0)
           (-70.0 60.0)
  end
  begin
     id 8 
     name rtibia
     direction -0.34202 -0.939693 0   
     length 7.61056   
     axis 0 0 -20   XYZ
    dof rx
    limits (-10.0 170.0)
 end
 begin
     id 9 
     name rfoot
     direction -0.12616 -0.346623 0.929482   
     length 2.46372  
     axis -90 -7.62852e-016 -20   XYZ
    dof rx rz
    limits (-45.0 90.0)
           (-20.0 70.0)
  end
  begin
     id 10 
     name rtoes
     direction -1.53531e-011 -4.22004e-011 1   
     length 1.21611   
     axis -90 -7.62852e-016 -20   XYZ
    dof rx
    limits (-90.0 20.0)
  end
  begin
     id 11 
     name lowerback
     direction -0.000778023 0.997293 -0.0735223   
     length 2.06139   
     axis 0 0 0   XYZ
    dof rx ry rz
    limits (-20.0 45.0)
           (-30.0 30.0)
           (-30.0 30.0)
  end
  begin
     id 12 
     name upperback
     direction 0.0222598 0.999722 -0.0078355   
     length 2.06383   
     axis 0 0 0   XYZ
    dof rx ry rz
    limits (-20.0 45.0)
           (-30.0 30.0)
           (-30.0 30.0)
  end
  begin
     id 13 
     name thorax
     direction 0.0219654 0.999405 0.0265994   
     length 2.07163   
     axis 0 0 0   XYZ
    dof rx ry rz
    limits (-20.0 45.0)
           (-30.0 30.0)
           (-30.0 30.0)
  end
  begin
     id 14 
     name lowerneck
     direction 0.0213282 0.988147 0.15202   
     length 1.75969   
     axis 0 0 0   XYZ
    dof rx ry rz
    limits (-20.0 45.0)
           (-30.0 30.0)
           (-30.0 30.0)
  end
  begin
     id 15 
     name upperneck
     direction -0.0546456 0.982624 -0.177379   
     length 1.79244   
     axis 0 0 0   XYZ
    dof rx ry rz
    limits (-20.0 45.0)
           (-30.0 30.0)
           (-30.0 30.0)
  end
  begin
     id 16
     name head
     direction -0.0199987 0.996855 -0.076686  
     length 1.80555  
     axis 0 0 0   XYZ
    dof rx ry rz
    limits (-20.0 45.0)
           (-30.0 30.0)
           (-30.0 30.0)
  end
  begin
     id 17 
     name lclavicle
     direction 0.929565 0.363219 -0.063096  
     length 3.55722  
     axis 0 0 0   XYZ
    dof ry rz
    limits (-20.0 10.0)
           (0.0 20.0)
  end
  begin
     id 18 
     name lhumerus
     direction 1 -4.48993e-011 -2.36203e-027   
     length 4.92785   
     axis 180 -30 -90   XYZ
    dof rx ry rz
    limits (-60.0 90.0)
           (-90.0 90.0)
           (-90.0 90.0)
  end
  begin
     id 19
     name lradius
     direction 1 -4.48947e-011 2.02997e-027   
     length 3.44052   
     axis 180 -30 -90   XYZ
    dof rx
    limits (-10.0 170.0)
  end
  begin
     id 20
     name lwrist
     direction 1 -4.48962e-011 1.45991e-027   
     length 1.72026   
     axis 1.49639e-024 90 90   XYZ
    dof ry
    limits (-180.0 0.0)
 end
  begin
     id 21 
     name lhand
     direction 1 -4.48984e-011 2.91906e-027   
     length 0.654326   
     axis -1.863e-015 90 90   XYZ
    dof rx rz
    limits (-90.0 90.0)
           (-45.0 45.0)
  end
  begin
     id 22 
     name lfingers
     direction 1 -4.48961e-011 5.83968e-027   
     length 0.527534   
     axis -3.72598e-015 90 90   XYZ
    dof rx
    limits (0.0 90.0)
  end
  begin
     id 23
     name lthumb
     direction 0.707107 -6.34963e-011 0.707107   
     length 0.757437   
     axis -90 45 -6.68868e-015   XYZ
    dof rx rz
    limits (-45.0 45.0)
           (-45.0 45.0)
  end
  begin
     id 24 
     name rclavicle
     direction -0.902944 0.422599 -0.0781198   
     length 3.54432  
     axis 0 0 0   XYZ 
    dof ry rz
    limits (-10.0 20.0)
           (-20.0 0.0)
  end
  begin
     id 25 
     name rhumerus
     direction -1 -4.48953e-011 -4.75835e-028  
     length 5.09181   
     axis 180 30 90   XYZ
    dof rx ry rz
    limits (-90.0 60.0)
           (-90.0 90.0)
           (-90.0 90.0)
  end
  begin
     id 26 
     name rradius
     direction -1 -4.48986e-011 -3.25889e-027   
     length 3.49865   
     axis 180 30 90   XYZ
    dof rx
    limits (-10.0 170.0)
  end
  begin
     id 27 
     name rwrist
     direction -1 -4.48963e-011 1.45989e-027   
     length 1.74933   
     axis 1.49639e-024 -90 -90   XYZ
    dof ry
    limits (-180.0 0.0)
  end
  begin
     id 28
     name rhand
     direction -1 -4.49003e-011 2.91844e-027   
     length 0.66641   
     axis -1.863e-015 -90 -90   XYZ
    dof rx rz
    limits (-90.0 90.0)
           (-45.0 45.0)
  end
  begin
     id 29
     name rfingers
     direction -1 -4.48973e-011 5.83886e-027   
     length 0.537277   
     axis -3.72598e-015 -90 -90   XYZ
    dof rx
    limits (0.0 90.0)
  end
  begin
     id 30
     name rthumb
     direction -0.707107 -6.34976e-011 0.707107   
     length 0.771425   
     axis -90 -45 6.68868e-015   XYZ
    dof rx rz
    limits (-45.0 45.0)
           (-45.0 45.0)
  end
:hierarchy
  begin
    root lhipjoint rhipjoint lowerback
    lhipjoint lfemur
    lfemur ltibia
    ltibia lfoot
    lfoot ltoes
    rhipjoint rfemur
    rfemur rtibia
    rtibia rfoot
    rfoot rtoes
    lowerback upperback
    upperback thorax
    thorax lowerneck lclavicle rclavicle
    lowerneck upperneck
    upperneck head
    lclavicle lhumerus
    lhumerus lradius
    lradius lwrist
    lwrist lhand lthumb
    lhand lfingers
    rclavicle rhumerus
    rhumerus rradius
    rradius rwrist
    rwrist rhand rthumb
    rhand rfingers
  end

#!OML:ASF H:\LiuWeirdWalks\Patient Classification 1\Patient 1\Session 1\male.ASF
:FULLY-SPECIFIED
:DEGREES
159
root 0.795511 17.8353 -31.1133 3.22764 3.21718 -0.896957
lowerback 3.58692 -0.628747 -1.37343
upperback -2.53911 -0.78968 3.00567
thorax -4.5799 -0.296436 3.95017
lowerneck -19.9244 1.95033 5.6988
upperneck 26.0283 3.03491 -7.23266
head 12.0777 0.980013 -3.20619
rclavicle 2.30466e-015 -1.90833e-014
rhumerus -40.171 -11.6526 -68.6206
rradius 28.9423
rwrist -4.19535
rhand -15.7231 -2.42011
rfingers 7.12502
rthumb 10.4673 -32.1395
lclavicle 2.30466e-015 -1.90833e-014
lhumerus -42.9844 7.01857 79.5339
lradius 33.0928
lwrist 5.5964
lhand -10.322 2.1309
lfingers 7.12502
lthumb 15.6735 31.5161
rfemur -12.1283 -1.24074 18.5272
rtibia 36.5947
rfoot -15.31 -21.7151
rtoes -7.18337
lfemur -7.28969 -2.54064 -23.1121
ltibia 25.6247
lfoot -14.2096 15.0666
ltoes -5.18602
160
root 0.812143 17.8306 -31.1013 3.24064 3.20748 -0.685965
lowerback 3.67968 -0.637083 -1.55481
upperback -2.54539 -0.813099 2.96089
thorax -4.63586 -0.302036 4.00984
lowerneck -19.8969 1.98538 5.74729
upperneck 25.9351 3.08092 -7.28581
head 12.0413 0.999215 -3.22458
rclavicle -6.74625e-015 1.98785e-014
rhumerus -40.1557 -11.5982 -68.6364
rradius 28.9951
rwrist -4.23235
rhand -15.7248 -2.41724
rfingers 7.12502
rthumb 10.4656 -32.1367
lclavicle -6.74625e-015 1.98785e-014
lhumerus -42.9881 7.06185 79.5149
lradius 33.0708
lwrist 5.60713
lhand -10.3316 2.00947
lfingers 7.12502
lthumb 15.6643 31.3954
rfemur -12.6845 -1.23206 18.2472
rtibia 37.7169
rfoot -15.2059 -21.7558
rtoes -7.71045
lfemur -7.15307 -2.51972 -23.4095
ltibia 25.4413
lfoot -14.2057 15.0457
ltoes -5.16548
161
root 0.828501 17.8278 -31.089 3.24318 3.18592 -0.51763
lowerback 3.78955 -0.6407 -1.69758
upperback -2.55565 -0.827713 2.93123
thorax -4.70668 -0.303822 4.0633
lowerneck -19.8677 2.01713 5.78341
upperneck 25.8659 3.1272 -7.33701
head 12.0139 1.01756 -3.24076
rclavicle 8.01972e-015 -1.98785e-014
rhumerus -40.1487 -11.5402 -68.6475
rradius 29.0512
rwrist -4.27353
rhand -15.7351 -2.44074
rfingers 7.12502
rthumb 10.4557 -32.1607
lclavicle 8.01972e-015 -1.98785e-014
lhumerus -42.9831 7.10955 79.4934
lradius 33.0194
lwrist 5.61037
lhand -10.3452 1.89918
lfingers 7.12502
lthumb 15.6512 31.2861
rfemur -13.2756 -1.19908 18.0157
rtibia 38.904
rfoot -15.013 -21.7911
rtoes -8.26879
lfemur -7.00737 -2.48732 -23.658
ltibia 25.2617
lfoot -14.205 15.0299
ltoes -5.14384
162
root 0.844887 17.8247 -31.0766 3.22961 3.12867 -0.420162
lowerback 3.90738 -0.626534 -1.76184
upperback -2.55435 -0.813977 2.91049
thorax -4.7731 -0.294063 4.07942
lowerneck -19.8667 2.02869 5.79373
upperneck 25.8333 3.14455 -7.35734
head 12.003 1.02379 -3.24654
rclavicle -2.23244e-014 -7.15625e-015
rhumerus -40.1507 -11.4809 -68.679
rradius 29.1315
rwrist -4.36799
rhand -15.7418 -2.48205
rfingers 7.12502
rthumb 10.4493 -32.2024
lclavicle -2.23244e-014 -7.15625e-015
lhumerus -42.9412 7.13496 79.4683
lradius 32.9443
lwrist 5.5971
lhand -10.3708 1.81214
lfingers 7.12502
lthumb 15.6266 31.201
rfemur -13.9068 -1.11689 17.8613
rtibia 40.1587
rfoot -14.732 -21.8156
rtoes -8.79343
lfemur -6.85095 -2.4183 -23.8281
ltibia 25.0878
lfoot -14.2046 15.016
ltoes -5.11461
163
root 0.860837 17.8227 -31.0651 3.2189 3.08119 -0.35666
lowerback 4.05294 -0.614832 -1.79005
upperback -2.57466 -0.800969 2.8976
thorax -4.87821 -0.284691 4.08435
lowerneck -19.8371 2.0204 5.77238
upperneck 25.8138 3.13939 -7.35496
head 11.9885 1.02019 -3.2421
rclavicle 1.53018e-014 -1.90833e-014
rhumerus -40.1924 -11.4169 -68.699
rradius 29.2139
rwrist -4.46405
rhand -15.7503 -2.51478
rfingers 7.12502
rthumb 10.441 -32.2355
lclavicle 1.53018e-014 -1.90833e-014
lhumerus -42.9262 7.15531 79.4351
lradius 32.8711
lwrist 5.58267
lhand -10.3933 1.76344
lfingers 7.12502
lthumb 15.6049 31.154
rfemur -14.5942 -1.02362 17.7433
rtibia 41.4815
rfoot -14.3825 -21.8223
rtoes -9.23442
lfemur -6.70237 -2.33443 -23.954
ltibia 24.9074
lfoot -14.1894 14.9753
ltoes -5.0823
164
root 0.877316 17.8214 -31.053 3.20475 3.04227 -0.262361
lowerback 4.18658 -0.605772 -1.83741
upperback -2.58688 -0.793427 2.87346
thorax -4.96757 -0.277964 4.08833
lowerneck -19.7974 2.002 5.73178
upperneck 25.7905 3.12306 -7.34123
head 11.9692 1.01132 -3.23165
rclavicle -1.25793e-016 1.90833e-014
rhumerus -40.2229 -11.391 -68.7051
rradius 29.2718
rwrist -4.51198
rhand -15.734 -2.48883
rfingers 7.12502
rthumb 10.4567 -32.2088
lclavicle -1.25793e-016 1.90833e-014
lhumerus -42.9146 7.18116 79.3988
lradius 32.8188
lwrist 5.56028
lhand -10.4125 1.78093
lfingers 7.12502
lthumb 15.5864 31.1729
rfemur -15.3218 -0.952198 17.5788
rtibia 42.8737
rfoot -13.9798 -21.7753
rtoes -9.54629
lfemur -6.53855 -2.25191 -24.1154
ltibia 24.7159
lfoot -14.168 14.9229
ltoes -5.05373
165
root 0.894377 17.8202 -31.0403 3.18154 3.00081 -0.135333
lowerback 4.30789 -0.587699 -1.90157
upperback -2.57547 -0.776484 2.82504
thorax -5.02606 -0.267307 4.07485
lowerneck -19.7816 1.96738 5.68289
upperneck 25.7445 3.07619 -7.30246
head 11.9427 0.99079 -3.21457
rclavicle 5.89987e-015 -2.38542e-015
rhumerus -40.2308 -11.4538 -68.6968
rradius 29.2987
rwrist -4.4989
rhand -15.7078 -2.42973
rfingers 7.12502
rthumb 10.482 -32.1484
lclavicle 5.89987e-015 -2.38542e-015
lhumerus -42.8665 7.17754 79.361
lradius 32.7703
lwrist 5.54186
lhand -10.4307 1.81218
lfingers 7.12502
lthumb 15.5688 31.2055
rfemur -16.0846 -0.892266 17.3661
rtibia 44.3253
rfoot -13.5173 -21.6734
rtoes -9.69166
lfemur -6.34578 -2.15277 -24.3142
ltibia 24.4938
lfoot -14.1296 14.8517
ltoes -5.04473
166
root 0.911191 17.8192 -31.0272 3.15822 2.96723 0.0215662
lowerback 4.43861 -0.600835 -2.00829
upperback -2.55496 -0.803524 2.79917
thorax -5.07602 -0.276875 4.11288
lowerneck -19.8292 1.98699 5.63644
upperneck 25.7173 3.11764 -7.30785
head 11.9445 1.00314 -3.2014
rclavicle -3.75759e-015 -3.97569e-015
rhumerus -40.1513 -11.4744 -68.6798
rradius 29.2708
rwrist -4.42073
rhand -15.676 -2.34804
rfingers 7.12502
rthumb 10.5127 -32.0652
lclavicle -3.75759e-015 -3.97569e-015
lhumerus -42.8467 7.29509 79.3157
lradius 32.7547
lwrist 5.51216
lhand -10.4328 1.86605
lfingers 7.12502
lthumb 15.5668 31.2596
rfemur -16.8854 -0.844845 17.1159
rtibia 45.8205
rfoot -12.9995 -21.5217
rtoes -9.63415
lfemur -6.13406 -2.02696 -24.5403
ltibia 24.238
lfoot -14.0771 14.7413
ltoes -5.06436
167
root 0.928116 17.8178 -31.0124 3.12079 2.91035 0.202775
lowerback 4.56136 -0.609077 -2.14061
upperback -2.51452 -0.826605 2.7655
thorax -5.10063 -0.284485 4.15642
lowerneck -19.9255 2.03811 5.62911
upperneck 25.699 3.19609 -7.3356
head 11.9637 1.0322 -3.19796
rclavicle 1.6701e-014 -8.74653e-015
rhumerus -40.0352 -11.5317 -68.6601
rradius 29.214
rwrist -4.30733
rhand -15.6404 -2.2638
rfingers 7.12502
rthumb 10.5471 -31.9792
lclavicle 1.6701e-014 -8.74653e-015
lhumerus -42.8204 7.41232 79.2707
lradius 32.7568
lwrist 5.48676
lhand -10.4326 1.96123
lfingers 7.12502
lthumb 15.567 31.3547
rfemur -17.7026 -0.788761 16.8346
rtibia 47.34
rfoot -12.4485 -21.3191
rtoes -9.38488
lfemur -5.88706 -1.88369 -24.7956
ltibia 23.9577
lfoot -14.0157 14.6363
ltoes -5.11694
168
root 0.944068 17.8162 -30.9963 3.06768 2.84583 0.381481
lowerback 4.69834 -0.614623 -2.28241
upperback -2.47457 -0.847186 2.73263
thorax -5.13391 -0.290321 4.20638
lowerneck -20.0396 2.08604 5.62296
upperneck 25.7378 3.27197 -7.36293
head 12.0085 1.05972 -3.19664
rclavicle 2.40188e-014 -3.73715e-014
rhumerus -39.9395 -11.5756 -68.6453
rradius 29.1695
rwrist -4.22343
rhand -15.6132 -2.21925
rfingers 7.12502
rthumb 10.5733 -31.9333
lclavicle 2.40188e-014 -3.73715e-014
lhumerus -42.8156 7.51619 79.2248
lradius 32.7698
lwrist 5.45261
lhand -10.4142 2.08388
lfingers 7.12502
lthumb 15.5848 31.476
rfemur -18.5253 -0.721131 16.5662
rtibia 48.8586
rfoot -11.9015 -21.1133
rtoes -9.01977
lfemur -5.6111 -1.7186 -25.0418
ltibia 23.6618
lfoot -13.9511 14.5185
ltoes -5.18851
169
root 0.958659 17.8145 -30.9789 3.00997 2.78902 0.565844
lowerback 4.84308 -0.621531 -2.44754
upperback -2.44644 -0.871546 2.70213
thorax -5.18334 -0.29664 4.2729
lowerneck -20.1355 2.11792 5.58574
upperneck 25.8178 3.33124 -7.36526
head 12.0634 1.08007 -3.18417
rclavicle -1.19892e-014 1.66979e-014
rhumerus -39.8838 -11.574 -68.6424
rradius 29.1589
rwrist -4.20859
rhand -15.5866 -2.21663
rfingers 7.12502
rthumb 10.5989 -31.9294
lclavicle -1.19892e-014 1.66979e-014
lhumerus -42.852 7.60346 79.1806
lradius 32.7962
lwrist 5.41811
lhand -10.3816 2.18347
lfingers 7.12502
lthumb 15.6161 31.5731
rfemur -19.3501 -0.65445 16.3075
rtibia 50.3568
rfoot -11.4583 -20.9511
rtoes -8.60646
lfemur -5.3221 -1.54089 -25.2855
ltibia 23.3577
lfoot -13.8872 14.3841
ltoes -5.28009
